<svg width="2732" height="2732" viewBox="0 0 2732 2732" fill="none" xmlns="http://www.w3.org/2000/svg">
<path d="M966.36 1977.44L953.6 1915.4L936 1998.12L862.52 2004.28L818.52 1982.28L749 1653.6L828.64 1647L872.64 1669L882.32 1720.92L898.16 1644.8L968.12 1639.08L1010.36 1661.08L1024 1727.52L1041.16 1636.44L1112.44 1630.28L1156.44 1652.28L1088.68 1993.28L1010.36 1999.88L966.36 1977.44ZM1044.68 1640.84L1010.36 1827.4C1010.07 1830.04 1009.63 1833.41 1009.04 1837.52C1008.75 1841.63 1008.45 1845.44 1008.16 1848.96C1007.87 1852.19 1007.72 1853.8 1007.72 1853.8H1006.4C1006.4 1853.8 1006.25 1852.19 1005.96 1848.96C1005.67 1845.73 1005.23 1842.07 1004.64 1837.96C1004.05 1833.56 1003.47 1830.19 1002.88 1827.84L964.16 1643.92L901.68 1649.2L867.36 1821.24C866.773 1824.76 866.04 1829.31 865.16 1834.88C864.28 1840.45 863.547 1845.59 862.96 1850.28C862.667 1854.68 862.52 1856.88 862.52 1856.88H861.2C861.2 1856.88 861.053 1854.83 860.76 1850.72C860.467 1846.32 859.88 1841.33 859 1835.76C858.413 1829.89 857.68 1824.76 856.8 1820.36L824.68 1651.84L754.28 1658L822.04 1977.44L888.04 1972.16L925.88 1796.16C926.467 1793.23 927.053 1788.83 927.64 1782.96C928.52 1776.8 929.107 1771.08 929.4 1765.8C929.987 1760.52 930.28 1757.88 930.28 1757.88L931.6 1757.44C931.6 1757.44 931.747 1760.08 932.04 1765.36C932.627 1770.35 933.213 1775.92 933.8 1782.08C934.68 1787.95 935.413 1792.35 936 1795.28L969.88 1973.48L1040.72 1967.32L1106.72 1635.56L1044.68 1640.84ZM1261.02 1971.72L1244.74 1919.36L1209.98 1922.44L1188.42 1999.44L1113.62 2006.04L1069.62 1984.04L1165.98 1640.4L1238.58 1634.24L1282.58 1656.24L1380.7 1987.56L1305.02 1993.72L1261.02 1971.72ZM1169.5 1644.8L1076.22 1978.76L1140.46 1973.48L1162.46 1896.48L1240.78 1889.44L1264.1 1967.32L1330.54 1961.6L1235.06 1639.08L1169.5 1644.8ZM1177.86 1832.24C1183.44 1814.05 1187.98 1796.75 1191.5 1780.32C1195.32 1763.89 1198.54 1747.47 1201.18 1731.04H1202.94C1205.29 1747.17 1208.22 1763.01 1211.74 1778.56C1215.56 1793.81 1220.1 1810.24 1225.38 1827.84L1177.86 1832.24ZM1469.98 1744.68C1469.1 1741.16 1468.22 1737.93 1467.34 1735C1466.46 1732.07 1465.58 1729.28 1464.7 1726.64C1458.24 1728.4 1452.96 1731.48 1448.86 1735.88C1444.75 1740.28 1442.7 1745.27 1442.7 1750.84C1442.7 1755.83 1443.28 1759.93 1444.46 1763.16L1456.78 1766.68C1471.74 1771.08 1486.84 1776.65 1502.1 1783.4C1517.35 1789.85 1531.28 1797.77 1543.9 1807.16C1556.8 1816.25 1567.22 1827.11 1575.14 1839.72C1583.06 1852.04 1587.02 1866.12 1587.02 1881.96C1587.02 1918.04 1576.9 1946.64 1556.66 1967.76C1536.71 1988.88 1508.4 2001.05 1471.74 2004.28C1469.39 2004.57 1466.9 2004.72 1464.26 2004.72C1461.91 2005.01 1459.56 2005.16 1457.22 2005.16C1446.07 2005.16 1434.63 2003.55 1422.9 2000.32C1411.16 1997.39 1399.14 1992.69 1386.82 1986.24C1372.44 1978.32 1360.42 1970.55 1350.74 1962.92C1341.06 1955 1333.14 1945.32 1326.98 1933.88C1321.11 1922.44 1316.12 1907.63 1312.02 1889.44L1385.5 1861.28L1429.5 1883.28C1431.26 1890.91 1433.31 1897.51 1435.66 1903.08C1453.55 1900.44 1462.5 1891.49 1462.5 1876.24C1462.5 1873.89 1462.2 1871.84 1461.62 1870.08C1461.32 1868.03 1460.88 1866.12 1460.3 1864.36C1460.3 1864.36 1458.54 1863.33 1455.02 1861.28C1451.5 1859.23 1448.27 1857.91 1445.34 1857.32C1416.88 1850.28 1393.27 1841.92 1374.5 1832.24C1356.02 1822.56 1342.23 1810.24 1333.14 1795.28C1324.34 1780.32 1319.94 1761.4 1319.94 1738.52C1319.94 1719.16 1324.48 1701.56 1333.58 1685.72C1342.67 1669.59 1355.28 1656.53 1371.42 1646.56C1387.84 1636.29 1406.62 1630.28 1427.74 1628.52C1430.38 1628.23 1432.87 1628.08 1435.22 1628.08C1437.86 1627.79 1440.35 1627.64 1442.7 1627.64C1455.9 1627.64 1467.48 1629.4 1477.46 1632.92C1487.72 1636.44 1499.46 1641.28 1512.66 1647.44C1526.15 1653.6 1537.44 1660.49 1546.54 1668.12C1555.63 1675.75 1563.11 1685.28 1568.98 1696.72C1575.14 1707.87 1580.27 1722.24 1584.38 1739.84L1513.98 1766.68L1469.98 1744.68ZM1425.54 1908.36C1413.8 1908.36 1404.42 1904.84 1397.38 1897.8C1390.34 1890.76 1385.2 1880.64 1381.98 1867.44L1316.86 1892.08C1323.6 1921.12 1334.75 1942.83 1350.3 1957.2C1365.84 1971.28 1386.82 1978.32 1413.22 1978.32C1415.56 1978.32 1417.91 1978.32 1420.26 1978.32C1422.6 1978.32 1424.95 1978.17 1427.3 1977.88C1462.5 1974.95 1489.78 1963.21 1509.14 1942.68C1528.79 1922.15 1538.62 1894.57 1538.62 1859.96C1538.62 1835.32 1531.72 1816.25 1517.94 1802.76C1504.15 1789.27 1483.32 1778.71 1455.46 1771.08L1420.26 1761.4C1409.7 1758.47 1402.66 1754.21 1399.14 1748.64C1395.91 1743.07 1394.3 1736.47 1394.3 1728.84C1394.3 1721.21 1397.23 1714.61 1403.1 1709.04C1408.96 1703.47 1416.74 1700.24 1426.42 1699.36C1427.59 1699.36 1428.62 1699.36 1429.5 1699.36C1430.67 1699.07 1431.84 1698.92 1433.02 1698.92C1443.87 1698.92 1452.38 1702 1458.54 1708.16C1464.99 1714.03 1469.83 1724.29 1473.06 1738.96L1535.1 1715.2C1528.94 1687.33 1518.38 1666.65 1503.42 1653.16C1488.75 1639.37 1468.51 1632.48 1442.7 1632.48C1440.35 1632.48 1437.86 1632.48 1435.22 1632.48C1432.87 1632.48 1430.52 1632.63 1428.18 1632.92C1407.64 1634.68 1389.6 1640.4 1374.06 1650.08C1358.51 1659.76 1346.34 1672.23 1337.54 1687.48C1328.74 1702.73 1324.34 1719.75 1324.34 1738.52C1324.34 1764.33 1330.06 1784.87 1341.5 1800.12C1353.23 1815.37 1373.91 1826.81 1403.54 1834.44L1430.82 1841.48C1441.96 1844.41 1450.76 1848.23 1457.22 1852.92C1463.67 1857.61 1466.9 1865.39 1466.9 1876.24C1466.9 1895.31 1454.72 1906.01 1430.38 1908.36H1425.54ZM1600.61 1975.68V1740.72L1572.89 1742.92L1528.89 1720.92V1647L1748.01 1627.64L1792.01 1649.64V1723.56L1720.29 1729.72V1990.2L1644.61 1997.24L1600.61 1975.68ZM1743.61 1697.6V1632.48L1533.29 1650.96V1716.08L1605.01 1709.92V1970.84L1671.89 1965.12V1703.76L1743.61 1697.6ZM1747.96 1980.52V1646.12L1937.6 1629.4L1981.6 1651.4V1723.56L1867.2 1733.68V1760.08L1914.28 1755.68L1958.28 1777.68V1848.96L1867.2 1857.32V1898.68L1945.08 1891.64L1989.08 1913.64V1985.36L1791.96 2002.52L1747.96 1980.52ZM1818.8 1907.48V1831.36L1909.88 1823V1760.52L1818.8 1768.88V1707.72L1933.2 1697.6V1634.24L1752.36 1650.08V1976.12L1940.68 1959.4V1896.48L1818.8 1907.48Z" fill="#FF00B6"/>
<path d="M1030.4 1557.6L1013 1473L989 1585.8L888.8 1594.2L828.8 1564.2L734 1116L842.6 1107L902.6 1137L915.8 1207.8L937.4 1104L1032.8 1096.2L1090.4 1126.2L1109 1216.8L1132.4 1092.6L1229.6 1084.2L1289.6 1114.2L1197.2 1579.2L1090.4 1588.2L1030.4 1557.6ZM1137.2 1098.6L1090.4 1353C1090 1356.6 1089.4 1361.2 1088.6 1366.8C1088.2 1372.4 1087.8 1377.6 1087.4 1382.4C1087 1386.8 1086.8 1389 1086.8 1389H1085C1085 1389 1084.8 1386.8 1084.4 1382.4C1084 1378 1083.4 1373 1082.6 1367.4C1081.8 1361.4 1081 1356.8 1080.2 1353.6L1027.4 1102.8L942.2 1110L895.4 1344.6C894.6 1349.4 893.6 1355.6 892.4 1363.2C891.2 1370.8 890.2 1377.8 889.4 1384.2C889 1390.2 888.8 1393.2 888.8 1393.2H887C887 1393.2 886.8 1390.4 886.4 1384.8C886 1378.8 885.2 1372 884 1364.4C883.2 1356.4 882.2 1349.4 881 1343.4L837.2 1113.6L741.2 1122L833.6 1557.6L923.6 1550.4L975.2 1310.4C976 1306.4 976.8 1300.4 977.6 1292.4C978.8 1284 979.6 1276.2 980 1269C980.8 1261.8 981.2 1258.2 981.2 1258.2L983 1257.6C983 1257.6 983.2 1261.2 983.6 1268.4C984.4 1275.2 985.2 1282.8 986 1291.2C987.2 1299.2 988.2 1305.2 989 1309.2L1035.2 1552.2L1131.8 1543.8L1221.8 1091.4L1137.2 1098.6ZM1225.21 1555.8V1099.8L1329.61 1090.2L1389.61 1120.2V1576.2L1285.21 1585.2L1225.21 1555.8ZM1231.21 1105.2V1549.2L1323.61 1540.8V1096.8L1231.21 1105.2ZM1546.88 1240.2C1545.68 1235.4 1544.48 1231 1543.28 1227C1542.08 1223 1540.88 1219.2 1539.68 1215.6C1530.88 1218 1523.68 1222.2 1518.08 1228.2C1512.48 1234.2 1509.68 1241 1509.68 1248.6C1509.68 1255.4 1510.48 1261 1512.08 1265.4L1528.88 1270.2C1549.28 1276.2 1569.88 1283.8 1590.68 1293C1611.48 1301.8 1630.48 1312.6 1647.68 1325.4C1665.28 1337.8 1679.48 1352.6 1690.28 1369.8C1701.08 1386.6 1706.48 1405.8 1706.48 1427.4C1706.48 1476.6 1692.68 1515.6 1665.08 1544.4C1637.88 1573.2 1599.28 1589.8 1549.28 1594.2C1546.08 1594.6 1542.68 1594.8 1539.08 1594.8C1535.88 1595.2 1532.68 1595.4 1529.48 1595.4C1514.28 1595.4 1498.68 1593.2 1482.68 1588.8C1466.68 1584.8 1450.28 1578.4 1433.48 1569.6C1413.88 1558.8 1397.48 1548.2 1384.28 1537.8C1371.08 1527 1360.28 1513.8 1351.88 1498.2C1343.88 1482.6 1337.08 1462.4 1331.48 1437.6L1431.68 1399.2L1491.68 1429.2C1494.08 1439.6 1496.88 1448.6 1500.08 1456.2C1524.48 1452.6 1536.68 1440.4 1536.68 1419.6C1536.68 1416.4 1536.28 1413.6 1535.48 1411.2C1535.08 1408.4 1534.48 1405.8 1533.68 1403.4C1533.68 1403.4 1531.28 1402 1526.48 1399.2C1521.68 1396.4 1517.28 1394.6 1513.28 1393.8C1474.48 1384.2 1442.28 1372.8 1416.68 1359.6C1391.48 1346.4 1372.68 1329.6 1360.28 1309.2C1348.28 1288.8 1342.28 1263 1342.28 1231.8C1342.28 1205.4 1348.48 1181.4 1360.88 1159.8C1373.28 1137.8 1390.48 1120 1412.48 1106.4C1434.88 1092.4 1460.48 1084.2 1489.28 1081.8C1492.88 1081.4 1496.28 1081.2 1499.48 1081.2C1503.08 1080.8 1506.48 1080.6 1509.68 1080.6C1527.68 1080.6 1543.48 1083 1557.08 1087.8C1571.08 1092.6 1587.08 1099.2 1605.08 1107.6C1623.48 1116 1638.88 1125.4 1651.28 1135.8C1663.68 1146.2 1673.88 1159.2 1681.88 1174.8C1690.28 1190 1697.28 1209.6 1702.88 1233.6L1606.88 1270.2L1546.88 1240.2ZM1486.28 1463.4C1470.28 1463.4 1457.48 1458.6 1447.88 1449C1438.28 1439.4 1431.28 1425.6 1426.88 1407.6L1338.08 1441.2C1347.28 1480.8 1362.48 1510.4 1383.68 1530C1404.88 1549.2 1433.48 1558.8 1469.48 1558.8C1472.68 1558.8 1475.88 1558.8 1479.08 1558.8C1482.28 1558.8 1485.48 1558.6 1488.68 1558.2C1536.68 1554.2 1573.88 1538.2 1600.28 1510.2C1627.08 1482.2 1640.48 1444.6 1640.48 1397.4C1640.48 1363.8 1631.08 1337.8 1612.28 1319.4C1593.48 1301 1565.08 1286.6 1527.08 1276.2L1479.08 1263C1464.68 1259 1455.08 1253.2 1450.28 1245.6C1445.88 1238 1443.68 1229 1443.68 1218.6C1443.68 1208.2 1447.68 1199.2 1455.68 1191.6C1463.68 1184 1474.28 1179.6 1487.48 1178.4C1489.08 1178.4 1490.48 1178.4 1491.68 1178.4C1493.28 1178 1494.88 1177.8 1496.48 1177.8C1511.28 1177.8 1522.88 1182 1531.28 1190.4C1540.08 1198.4 1546.68 1212.4 1551.08 1232.4L1635.68 1200C1627.28 1162 1612.88 1133.8 1592.48 1115.4C1572.48 1096.6 1544.88 1087.2 1509.68 1087.2C1506.48 1087.2 1503.08 1087.2 1499.48 1087.2C1496.28 1087.2 1493.08 1087.4 1489.88 1087.8C1461.88 1090.2 1437.28 1098 1416.08 1111.2C1394.88 1124.4 1378.28 1141.4 1366.28 1162.2C1354.28 1183 1348.28 1206.2 1348.28 1231.8C1348.28 1267 1356.08 1295 1371.68 1315.8C1387.68 1336.6 1415.88 1352.2 1456.28 1362.6L1493.48 1372.2C1508.68 1376.2 1520.68 1381.4 1529.48 1387.8C1538.28 1394.2 1542.68 1404.8 1542.68 1419.6C1542.68 1445.6 1526.08 1460.2 1492.88 1463.4H1486.28ZM1656.02 1561.8V1105.8L1914.62 1083L1974.62 1113V1211.4L1818.62 1225.2V1261.2L1882.82 1255.2L1942.82 1285.2V1382.4L1818.62 1393.8V1450.2L1924.82 1440.6L1984.82 1470.6V1568.4L1716.02 1591.8L1656.02 1561.8ZM1752.62 1462.2V1358.4L1876.82 1347V1261.8L1752.62 1273.2V1189.8L1908.62 1176V1089.6L1662.02 1111.2V1555.8L1918.82 1533V1447.2L1752.62 1462.2Z" fill="#FFB100"/>
<path d="M1030.4 1036.6L1013 952L989 1064.8L888.8 1073.2L828.8 1043.2L734 595L842.6 586L902.6 616L915.8 686.8L937.4 583L1032.8 575.2L1090.4 605.2L1109 695.8L1132.4 571.6L1229.6 563.2L1289.6 593.2L1197.2 1058.2L1090.4 1067.2L1030.4 1036.6ZM1137.2 577.6L1090.4 832C1090 835.6 1089.4 840.2 1088.6 845.8C1088.2 851.4 1087.8 856.6 1087.4 861.4C1087 865.8 1086.8 868 1086.8 868H1085C1085 868 1084.8 865.8 1084.4 861.4C1084 857 1083.4 852 1082.6 846.4C1081.8 840.4 1081 835.8 1080.2 832.6L1027.4 581.8L942.2 589L895.4 823.6C894.6 828.4 893.6 834.6 892.4 842.2C891.2 849.8 890.2 856.8 889.4 863.2C889 869.2 888.8 872.2 888.8 872.2H887C887 872.2 886.8 869.4 886.4 863.8C886 857.8 885.2 851 884 843.4C883.2 835.4 882.2 828.4 881 822.4L837.2 592.6L741.2 601L833.6 1036.6L923.6 1029.4L975.2 789.4C976 785.4 976.8 779.4 977.6 771.4C978.8 763 979.6 755.2 980 748C980.8 740.8 981.2 737.2 981.2 737.2L983 736.6C983 736.6 983.2 740.2 983.6 747.4C984.4 754.2 985.2 761.8 986 770.2C987.2 778.2 988.2 784.2 989 788.2L1035.2 1031.2L1131.8 1022.8L1221.8 570.4L1137.2 577.6ZM1225.21 1034.8V578.8L1329.61 569.2L1389.61 599.2V1055.2L1285.21 1064.2L1225.21 1034.8ZM1231.21 584.2V1028.2L1323.61 1019.8V575.8L1231.21 584.2ZM1546.88 719.2C1545.68 714.4 1544.48 710 1543.28 706C1542.08 702 1540.88 698.2 1539.68 694.6C1530.88 697 1523.68 701.2 1518.08 707.2C1512.48 713.2 1509.68 720 1509.68 727.6C1509.68 734.4 1510.48 740 1512.08 744.4L1528.88 749.2C1549.28 755.2 1569.88 762.8 1590.68 772C1611.48 780.8 1630.48 791.6 1647.68 804.4C1665.28 816.8 1679.48 831.6 1690.28 848.8C1701.08 865.6 1706.48 884.8 1706.48 906.4C1706.48 955.6 1692.68 994.6 1665.08 1023.4C1637.88 1052.2 1599.28 1068.8 1549.28 1073.2C1546.08 1073.6 1542.68 1073.8 1539.08 1073.8C1535.88 1074.2 1532.68 1074.4 1529.48 1074.4C1514.28 1074.4 1498.68 1072.2 1482.68 1067.8C1466.68 1063.8 1450.28 1057.4 1433.48 1048.6C1413.88 1037.8 1397.48 1027.2 1384.28 1016.8C1371.08 1006 1360.28 992.8 1351.88 977.2C1343.88 961.6 1337.08 941.4 1331.48 916.6L1431.68 878.2L1491.68 908.2C1494.08 918.6 1496.88 927.6 1500.08 935.2C1524.48 931.6 1536.68 919.4 1536.68 898.6C1536.68 895.4 1536.28 892.6 1535.48 890.2C1535.08 887.4 1534.48 884.8 1533.68 882.4C1533.68 882.4 1531.28 881 1526.48 878.2C1521.68 875.4 1517.28 873.6 1513.28 872.8C1474.48 863.2 1442.28 851.8 1416.68 838.6C1391.48 825.4 1372.68 808.6 1360.28 788.2C1348.28 767.8 1342.28 742 1342.28 710.8C1342.28 684.4 1348.48 660.4 1360.88 638.8C1373.28 616.8 1390.48 599 1412.48 585.4C1434.88 571.4 1460.48 563.2 1489.28 560.8C1492.88 560.4 1496.28 560.2 1499.48 560.2C1503.08 559.8 1506.48 559.6 1509.68 559.6C1527.68 559.6 1543.48 562 1557.08 566.8C1571.08 571.6 1587.08 578.2 1605.08 586.6C1623.48 595 1638.88 604.4 1651.28 614.8C1663.68 625.2 1673.88 638.2 1681.88 653.8C1690.28 669 1697.28 688.6 1702.88 712.6L1606.88 749.2L1546.88 719.2ZM1486.28 942.4C1470.28 942.4 1457.48 937.6 1447.88 928C1438.28 918.4 1431.28 904.6 1426.88 886.6L1338.08 920.2C1347.28 959.8 1362.48 989.4 1383.68 1009C1404.88 1028.2 1433.48 1037.8 1469.48 1037.8C1472.68 1037.8 1475.88 1037.8 1479.08 1037.8C1482.28 1037.8 1485.48 1037.6 1488.68 1037.2C1536.68 1033.2 1573.88 1017.2 1600.28 989.2C1627.08 961.2 1640.48 923.6 1640.48 876.4C1640.48 842.8 1631.08 816.8 1612.28 798.4C1593.48 780 1565.08 765.6 1527.08 755.2L1479.08 742C1464.68 738 1455.08 732.2 1450.28 724.6C1445.88 717 1443.68 708 1443.68 697.6C1443.68 687.2 1447.68 678.2 1455.68 670.6C1463.68 663 1474.28 658.6 1487.48 657.4C1489.08 657.4 1490.48 657.4 1491.68 657.4C1493.28 657 1494.88 656.8 1496.48 656.8C1511.28 656.8 1522.88 661 1531.28 669.4C1540.08 677.4 1546.68 691.4 1551.08 711.4L1635.68 679C1627.28 641 1612.88 612.8 1592.48 594.4C1572.48 575.6 1544.88 566.2 1509.68 566.2C1506.48 566.2 1503.08 566.2 1499.48 566.2C1496.28 566.2 1493.08 566.4 1489.88 566.8C1461.88 569.2 1437.28 577 1416.08 590.2C1394.88 603.4 1378.28 620.4 1366.28 641.2C1354.28 662 1348.28 685.2 1348.28 710.8C1348.28 746 1356.08 774 1371.68 794.8C1387.68 815.6 1415.88 831.2 1456.28 841.6L1493.48 851.2C1508.68 855.2 1520.68 860.4 1529.48 866.8C1538.28 873.2 1542.68 883.8 1542.68 898.6C1542.68 924.6 1526.08 939.2 1492.88 942.4H1486.28ZM1656.02 1040.8V584.8L1914.62 562L1974.62 592V690.4L1818.62 704.2V740.2L1882.82 734.2L1942.82 764.2V861.4L1818.62 872.8V929.2L1924.82 919.6L1984.82 949.6V1047.4L1716.02 1070.8L1656.02 1040.8ZM1752.62 941.2V837.4L1876.82 826V740.8L1752.62 752.2V668.8L1908.62 655V568.6L1662.02 590.2V1034.8L1918.82 1012V926.2L1752.62 941.2Z" fill="#00C7FF"/>
</svg>
