<svg width="183" height="218" viewBox="0 0 183 218" fill="none" xmlns="http://www.w3.org/2000/svg">
<path d="M8.192 101.024V3.744L37.76 1.05599C38.3573 0.97066 38.912 0.927994 39.424 0.927994C39.936 0.927994 40.4907 0.927994 41.088 0.927994C47.4027 0.927994 54.1013 2.63466 61.184 6.048C66.304 8.52266 70.4427 11.7653 73.6 15.776C76.7573 19.7013 78.336 24.5653 78.336 30.368C78.336 35.3173 77.44 39.4987 75.648 42.912C73.856 46.24 71.4667 48.8 68.48 50.592C72.4053 51.4453 75.8613 53.792 78.848 57.632C81.92 61.3867 83.456 66.8053 83.456 73.888C83.456 79.1787 82.304 84.0427 80 88.48C77.696 92.9173 74.2827 96.5867 69.76 99.488C65.3227 102.304 59.8187 104.011 53.248 104.608L20.992 107.424L8.192 101.024ZM40.32 97.056C46.6347 96.4587 51.9253 94.7947 56.192 92.064C60.544 89.3333 63.8293 85.8347 66.048 81.568C68.2667 77.216 69.376 72.5227 69.376 67.488C69.376 62.624 68.5653 58.5707 66.944 55.328C65.408 52.0853 63.3173 49.6533 60.672 48.032C58.112 46.3253 55.296 45.344 52.224 45.088L52.096 44.576C55.936 42.8693 58.9227 40.3093 61.056 36.896C63.1893 33.4827 64.256 29.1733 64.256 23.968C64.256 17.6533 62.1653 12.448 57.984 8.352C53.888 4.25599 48.256 2.20799 41.088 2.20799C40.576 2.20799 40.0213 2.20799 39.424 2.20799C38.912 2.20799 38.4 2.25066 37.888 2.336L9.472 4.896V99.744L40.32 97.056ZM28.8 21.28L34.56 20.768C34.9867 20.6827 35.4133 20.64 35.84 20.64C36.2667 20.64 36.6507 20.64 36.992 20.64C39.9787 20.64 42.1547 21.3227 43.52 22.688C44.8853 23.968 45.568 25.9733 45.568 28.704C45.568 34.848 41.856 38.2613 34.432 38.944L28.8 39.456V21.28ZM40.32 36C42.9653 34.72 44.288 32.288 44.288 28.704C44.288 28.448 44.288 28.192 44.288 27.936C44.288 27.68 44.2453 27.424 44.16 27.168L40.32 27.552V36ZM28.8 57.504L37.376 56.736C37.7173 56.736 38.016 56.736 38.272 56.736C38.528 56.6507 38.8267 56.608 39.168 56.608C42.4107 56.608 45.056 57.4613 47.104 59.168C49.152 60.8747 50.176 63.392 50.176 66.72C50.176 74.4 46.3787 78.5387 38.784 79.136L28.8 80.032V57.504ZM42.88 76.96C46.8907 75.2533 48.896 71.84 48.896 66.72C48.896 66.2933 48.8533 65.9093 48.768 65.568C48.768 65.2267 48.7253 64.8853 48.64 64.544L42.88 65.056V76.96ZM73.292 99.744V2.464L95.564 0.415993L108.364 6.81599V104.096L86.092 106.016L73.292 99.744ZM74.572 3.616V98.336L94.284 96.544V1.824L74.572 3.616ZM102.362 101.28V3.99999L135.514 1.05599C136.026 0.97066 136.495 0.927994 136.922 0.927994C137.434 0.927994 137.946 0.927994 138.458 0.927994C141.871 0.927994 145.157 1.43999 148.314 2.464C151.471 3.48799 154.799 4.81066 158.298 6.432C164.869 9.33333 169.861 13.2587 173.274 18.208C176.687 23.072 178.394 29.4293 178.394 37.28C178.394 48.032 175.663 56.5653 170.202 62.88C164.741 69.1947 157.317 72.736 147.93 73.504L137.178 74.4V105.76L115.162 107.68L102.362 101.28ZM135.002 65.824C144.133 65.056 151.301 61.6427 156.506 55.584C161.711 49.44 164.314 41.2053 164.314 30.88C164.314 25.1627 163.29 20.1707 161.242 15.904C159.194 11.6373 156.25 8.30933 152.41 5.92C148.655 3.44533 144.09 2.20799 138.714 2.20799C138.202 2.20799 137.69 2.20799 137.178 2.20799C136.666 2.20799 136.154 2.25066 135.642 2.336L103.642 5.15199V100L123.098 98.336V66.848L135.002 65.824ZM123.098 21.92L131.802 21.152C132.143 21.152 132.442 21.152 132.698 21.152C133.039 21.0667 133.338 21.024 133.594 21.024C136.751 21.024 139.226 21.9627 141.018 23.84C142.895 25.632 143.834 28.7893 143.834 33.312C143.834 38.0053 142.682 41.504 140.378 43.808C138.074 46.112 135.215 47.4347 131.802 47.776L123.098 48.544V21.92ZM137.178 44.832C138.885 43.6373 140.207 42.144 141.146 40.352C142.085 38.56 142.554 36.2133 142.554 33.312C142.554 31.52 142.426 30.112 142.17 29.088L137.178 29.472V44.832Z" fill="#FFB100"/>
<path d="M8.192 211.024V113.744L37.76 111.056C38.3573 110.971 38.912 110.928 39.424 110.928C39.936 110.928 40.4907 110.928 41.088 110.928C47.4027 110.928 54.1013 112.635 61.184 116.048C66.304 118.523 70.4427 121.765 73.6 125.776C76.7573 129.701 78.336 134.565 78.336 140.368C78.336 145.317 77.44 149.499 75.648 152.912C73.856 156.24 71.4667 158.8 68.48 160.592C72.4053 161.445 75.8613 163.792 78.848 167.632C81.92 171.387 83.456 176.805 83.456 183.888C83.456 189.179 82.304 194.043 80 198.48C77.696 202.917 74.2827 206.587 69.76 209.488C65.3227 212.304 59.8187 214.011 53.248 214.608L20.992 217.424L8.192 211.024ZM40.32 207.056C46.6347 206.459 51.9253 204.795 56.192 202.064C60.544 199.333 63.8293 195.835 66.048 191.568C68.2667 187.216 69.376 182.523 69.376 177.488C69.376 172.624 68.5653 168.571 66.944 165.328C65.408 162.085 63.3173 159.653 60.672 158.032C58.112 156.325 55.296 155.344 52.224 155.088L52.096 154.576C55.936 152.869 58.9227 150.309 61.056 146.896C63.1893 143.483 64.256 139.173 64.256 133.968C64.256 127.653 62.1653 122.448 57.984 118.352C53.888 114.256 48.256 112.208 41.088 112.208C40.576 112.208 40.0213 112.208 39.424 112.208C38.912 112.208 38.4 112.251 37.888 112.336L9.472 114.896V209.744L40.32 207.056ZM28.8 131.28L34.56 130.768C34.9867 130.683 35.4133 130.64 35.84 130.64C36.2667 130.64 36.6507 130.64 36.992 130.64C39.9787 130.64 42.1547 131.323 43.52 132.688C44.8853 133.968 45.568 135.973 45.568 138.704C45.568 144.848 41.856 148.261 34.432 148.944L28.8 149.456V131.28ZM40.32 146C42.9653 144.72 44.288 142.288 44.288 138.704C44.288 138.448 44.288 138.192 44.288 137.936C44.288 137.68 44.2453 137.424 44.16 137.168L40.32 137.552V146ZM28.8 167.504L37.376 166.736C37.7173 166.736 38.016 166.736 38.272 166.736C38.528 166.651 38.8267 166.608 39.168 166.608C42.4107 166.608 45.056 167.461 47.104 169.168C49.152 170.875 50.176 173.392 50.176 176.72C50.176 184.4 46.3787 188.539 38.784 189.136L28.8 190.032V167.504ZM42.88 186.96C46.8907 185.253 48.896 181.84 48.896 176.72C48.896 176.293 48.8533 175.909 48.768 175.568C48.768 175.227 48.7253 174.885 48.64 174.544L42.88 175.056V186.96ZM73.292 209.744V112.464L95.564 110.416L108.364 116.816V214.096L86.092 216.016L73.292 209.744ZM74.572 113.616V208.336L94.284 206.544V111.824L74.572 113.616ZM102.362 211.28V114L135.514 111.056C136.026 110.971 136.495 110.928 136.922 110.928C137.434 110.928 137.946 110.928 138.458 110.928C141.871 110.928 145.157 111.44 148.314 112.464C151.471 113.488 154.799 114.811 158.298 116.432C164.869 119.333 169.861 123.259 173.274 128.208C176.687 133.072 178.394 139.429 178.394 147.28C178.394 158.032 175.663 166.565 170.202 172.88C164.741 179.195 157.317 182.736 147.93 183.504L137.178 184.4V215.76L115.162 217.68L102.362 211.28ZM135.002 175.824C144.133 175.056 151.301 171.643 156.506 165.584C161.711 159.44 164.314 151.205 164.314 140.88C164.314 135.163 163.29 130.171 161.242 125.904C159.194 121.637 156.25 118.309 152.41 115.92C148.655 113.445 144.09 112.208 138.714 112.208C138.202 112.208 137.69 112.208 137.178 112.208C136.666 112.208 136.154 112.251 135.642 112.336L103.642 115.152V210L123.098 208.336V176.848L135.002 175.824ZM123.098 131.92L131.802 131.152C132.143 131.152 132.442 131.152 132.698 131.152C133.039 131.067 133.338 131.024 133.594 131.024C136.751 131.024 139.226 131.963 141.018 133.84C142.895 135.632 143.834 138.789 143.834 143.312C143.834 148.005 142.682 151.504 140.378 153.808C138.074 156.112 135.215 157.435 131.802 157.776L123.098 158.544V131.92ZM137.178 154.832C138.885 153.637 140.207 152.144 141.146 150.352C142.085 148.56 142.554 146.213 142.554 143.312C142.554 141.52 142.426 140.112 142.17 139.088L137.178 139.472V154.832Z" fill="#00C7FF"/>
</svg>
