<svg width="168" height="256" viewBox="0 0 168 256" fill="none" xmlns="http://www.w3.org/2000/svg">
<path d="M159.054 0H8.5751C3.84663 0 0 3.84442 0 8.57019V247.43C0 252.156 3.84663 256 8.5751 256H159.054C163.783 256 167.629 252.156 167.629 247.43V8.57019C167.629 3.84442 163.783 0 159.054 0ZM8.29849 247.43V8.57019C8.29849 8.41759 8.42241 8.29374 8.5751 8.29374H66.3879V247.706H8.5751C8.42241 247.706 8.29849 247.582 8.29849 247.43ZM159.331 247.43C159.331 247.582 159.207 247.706 159.054 247.706H74.6864V8.29374H159.054C159.207 8.29374 159.331 8.41759 159.331 8.57019V247.43Z" fill="white"/>
<path d="M159.054 0H8.5751C3.84663 0 0 3.84442 0 8.57019V247.43C0 252.156 3.84663 256 8.5751 256H159.054C163.783 256 167.629 252.156 167.629 247.43V8.57019C167.629 3.84442 163.783 0 159.054 0ZM8.29849 247.43V8.57019C8.29849 8.41759 8.42241 8.29374 8.5751 8.29374H66.3879V247.706H8.5751C8.42241 247.706 8.29849 247.582 8.29849 247.43ZM159.331 247.43C159.331 247.582 159.207 247.706 159.054 247.706H74.6864V8.29374H159.054C159.207 8.29374 159.331 8.41759 159.331 8.57019V247.43Z" stroke="black"/>
<path d="M52.8337 75.1965C50.5422 75.1965 48.6844 77.0532 48.6844 79.3434V176.657C48.6844 178.947 50.5422 180.803 52.8337 180.803C55.1252 180.803 56.9829 178.947 56.9829 176.657V79.3434C56.9829 77.0532 55.1252 75.1965 52.8337 75.1965Z" fill="white"/>
<path d="M52.8337 75.1965C50.5422 75.1965 48.6844 77.0532 48.6844 79.3434V176.657C48.6844 178.947 50.5422 180.803 52.8337 180.803C55.1252 180.803 56.9829 178.947 56.9829 176.657V79.3434C56.9829 77.0532 55.1252 75.1965 52.8337 75.1965Z" stroke="black"/>
<path d="M88.2406 75.1965C85.9491 75.1965 84.0913 77.0532 84.0913 79.3434V176.657C84.0913 178.947 85.9491 180.803 88.2406 180.803C90.532 180.803 92.3898 178.947 92.3898 176.657V79.3434C92.3898 77.0532 90.532 75.1965 88.2406 75.1965Z" fill="white"/>
<path d="M88.2406 75.1965C85.9491 75.1965 84.0913 77.0532 84.0913 79.3434V176.657C84.0913 178.947 85.9491 180.803 88.2406 180.803C90.532 180.803 92.3898 178.947 92.3898 176.657V79.3434C92.3898 77.0532 90.532 75.1965 88.2406 75.1965Z" stroke="black"/>
<path d="M39.5561 101.737H17.4268C15.1353 101.737 13.2776 103.593 13.2776 105.883V150.117C13.2776 152.407 15.1353 154.264 17.4268 154.264H39.5561C41.8476 154.264 43.7054 152.407 43.7054 150.117V105.883C43.7054 103.593 41.8476 101.737 39.5561 101.737ZM35.4069 110.03V115.006H21.5761V110.03H35.4069ZM21.5761 145.97V123.3H35.4069V145.97H21.5761Z" fill="white"/>
<path d="M39.5561 101.737H17.4268C15.1353 101.737 13.2776 103.593 13.2776 105.883V150.117C13.2776 152.407 15.1353 154.264 17.4268 154.264H39.5561C41.8476 154.264 43.7054 152.407 43.7054 150.117V105.883C43.7054 103.593 41.8476 101.737 39.5561 101.737ZM35.4069 110.03V115.006H21.5761V110.03H35.4069ZM21.5761 145.97V123.3H35.4069V145.97H21.5761Z" stroke="black"/>
</svg>
