<svg width="38" height="43" viewBox="0 0 38 43" fill="none" xmlns="http://www.w3.org/2000/svg">
<line x1="3" y1="35" x2="3" y2="38" stroke="white" stroke-width="2" stroke-linecap="round"/>
<line x1="21" y1="35" x2="21" y2="38" stroke="white" stroke-width="2" stroke-linecap="round"/>
<rect x="1.5" y="1.5" width="21" height="33" rx="3.5" stroke="white" stroke-width="3"/>
<line y1="14" x2="24" y2="14" stroke="white" stroke-width="4"/>
<rect x="1.38076" y="2.0861" width="14.3818" height="22.801" rx="3.5" transform="matrix(0.920505 0.390731 0 1 21.6098 9.9605)" stroke="white" stroke-width="3"/>
<line x1="6" y1="6" x2="6" y2="9" stroke="white" stroke-width="2" stroke-linecap="round"/>
<path d="M5 23H19" stroke="white" stroke-width="2" stroke-linecap="round"/>
<path d="M5 30H19" stroke="white" stroke-width="2" stroke-linecap="round"/>
<path d="M6.5 30V26" stroke="white" stroke-linecap="round"/>
<path d="M7 26H9" stroke="white" stroke-linecap="square"/>
<path d="M9.5 26L9.5 30" stroke="white" stroke-linecap="round"/>
<path d="M13 26H19" stroke="white" stroke-linecap="round"/>
<path d="M13 30V26" stroke="white" stroke-linecap="round"/>
<path d="M19 26L19 30" stroke="white" stroke-linecap="round"/>
<path d="M9 19H15" stroke="white" stroke-linecap="round"/>
<path d="M9 23V19" stroke="white" stroke-linecap="round"/>
<path d="M15 19L15 23" stroke="white" stroke-linecap="round"/>
</svg>
