<svg width="272" height="312" viewBox="0 0 272 312" fill="none" xmlns="http://www.w3.org/2000/svg">
<path d="M64.232 215.128L60.52 197.08L55.4 221.144L34.024 222.936L21.224 216.536L1 120.92L24.168 119L36.968 125.4L39.784 140.504L44.392 118.36L64.744 116.696L77.032 123.096L81 142.424L85.992 115.928L106.728 114.136L119.528 120.536L99.816 219.736L77.032 221.656L64.232 215.128ZM87.016 117.208L77.032 171.48C76.9467 172.248 76.8187 173.229 76.648 174.424C76.5627 175.619 76.4773 176.728 76.392 177.752C76.3067 178.691 76.264 179.16 76.264 179.16H75.88C75.88 179.16 75.8373 178.691 75.752 177.752C75.6667 176.813 75.5387 175.747 75.368 174.552C75.1973 173.272 75.0267 172.291 74.856 171.608L63.592 118.104L45.416 119.64L35.432 169.688C35.2613 170.712 35.048 172.035 34.792 173.656C34.536 175.277 34.3227 176.771 34.152 178.136C34.0667 179.416 34.024 180.056 34.024 180.056H33.64C33.64 180.056 33.5973 179.459 33.512 178.264C33.4267 176.984 33.256 175.533 33 173.912C32.8293 172.205 32.616 170.712 32.36 169.432L23.016 120.408L2.536 122.2L22.248 215.128L41.448 213.592L52.456 162.392C52.6267 161.539 52.7973 160.259 52.968 158.552C53.224 156.76 53.3947 155.096 53.48 153.56C53.6507 152.024 53.736 151.256 53.736 151.256L54.12 151.128C54.12 151.128 54.1627 151.896 54.248 153.432C54.4187 154.883 54.5893 156.504 54.76 158.296C55.016 160.003 55.2293 161.283 55.4 162.136L65.256 213.976L85.864 212.184L105.064 115.672L87.016 117.208ZM105.792 214.744V117.464L128.064 115.416L140.864 121.816V219.096L118.592 221.016L105.792 214.744ZM107.072 118.616V213.336L126.784 211.544V116.824L107.072 118.616ZM174.414 147.416C174.158 146.392 173.902 145.453 173.646 144.6C173.39 143.747 173.134 142.936 172.878 142.168C171.001 142.68 169.465 143.576 168.27 144.856C167.075 146.136 166.478 147.587 166.478 149.208C166.478 150.659 166.649 151.853 166.99 152.792L170.574 153.816C174.926 155.096 179.321 156.717 183.758 158.68C188.195 160.557 192.249 162.861 195.918 165.592C199.673 168.237 202.702 171.395 205.006 175.064C207.31 178.648 208.462 182.744 208.462 187.352C208.462 197.848 205.518 206.168 199.63 212.312C193.827 218.456 185.593 221.997 174.926 222.936C174.243 223.021 173.518 223.064 172.75 223.064C172.067 223.149 171.385 223.192 170.702 223.192C167.459 223.192 164.131 222.723 160.718 221.784C157.305 220.931 153.806 219.565 150.222 217.688C146.041 215.384 142.542 213.123 139.726 210.904C136.91 208.6 134.606 205.784 132.814 202.456C131.107 199.128 129.657 194.819 128.462 189.528L149.838 181.336L162.638 187.736C163.15 189.955 163.747 191.875 164.43 193.496C169.635 192.728 172.238 190.125 172.238 185.688C172.238 185.005 172.153 184.408 171.982 183.896C171.897 183.299 171.769 182.744 171.598 182.232C171.598 182.232 171.086 181.933 170.062 181.336C169.038 180.739 168.099 180.355 167.246 180.184C158.969 178.136 152.099 175.704 146.638 172.888C141.262 170.072 137.251 166.488 134.606 162.136C132.046 157.784 130.766 152.28 130.766 145.624C130.766 139.992 132.089 134.872 134.734 130.264C137.379 125.571 141.049 121.773 145.742 118.872C150.521 115.885 155.982 114.136 162.126 113.624C162.894 113.539 163.619 113.496 164.302 113.496C165.07 113.411 165.795 113.368 166.478 113.368C170.318 113.368 173.689 113.88 176.59 114.904C179.577 115.928 182.99 117.336 186.83 119.128C190.755 120.92 194.041 122.925 196.686 125.144C199.331 127.363 201.507 130.136 203.214 133.464C205.006 136.707 206.499 140.888 207.694 146.008L187.214 153.816L174.414 147.416ZM161.486 195.032C158.073 195.032 155.342 194.008 153.294 191.96C151.246 189.912 149.753 186.968 148.814 183.128L129.87 190.296C131.833 198.744 135.075 205.059 139.598 209.24C144.121 213.336 150.222 215.384 157.902 215.384C158.585 215.384 159.267 215.384 159.95 215.384C160.633 215.384 161.315 215.341 161.998 215.256C172.238 214.403 180.174 210.989 185.806 205.016C191.523 199.043 194.382 191.021 194.382 180.952C194.382 173.784 192.377 168.237 188.366 164.312C184.355 160.387 178.297 157.315 170.19 155.096L159.95 152.28C156.878 151.427 154.83 150.189 153.806 148.568C152.867 146.947 152.398 145.027 152.398 142.808C152.398 140.589 153.251 138.669 154.958 137.048C156.665 135.427 158.926 134.488 161.742 134.232C162.083 134.232 162.382 134.232 162.638 134.232C162.979 134.147 163.321 134.104 163.662 134.104C166.819 134.104 169.294 135 171.086 136.792C172.963 138.499 174.371 141.485 175.31 145.752L193.358 138.84C191.566 130.733 188.494 124.717 184.142 120.792C179.875 116.781 173.987 114.776 166.478 114.776C165.795 114.776 165.07 114.776 164.302 114.776C163.619 114.776 162.937 114.819 162.254 114.904C156.281 115.416 151.033 117.08 146.51 119.896C141.987 122.712 138.446 126.339 135.886 130.776C133.326 135.213 132.046 140.163 132.046 145.624C132.046 153.133 133.71 159.107 137.038 163.544C140.451 167.981 146.467 171.309 155.086 173.528L163.022 175.576C166.265 176.429 168.825 177.539 170.702 178.904C172.579 180.269 173.518 182.531 173.518 185.688C173.518 191.235 169.977 194.349 162.894 195.032H161.486ZM197.697 216.024V118.744L252.865 113.88L265.665 120.28V141.272L232.385 144.216V151.896L246.081 150.616L258.881 157.016V177.752L232.385 180.184V192.216L255.041 190.168L267.841 196.568V217.432L210.497 222.424L197.697 216.024ZM218.305 194.776V172.632L244.801 170.2V152.024L218.305 154.456V136.664L251.585 133.72V115.288L198.977 119.896V214.744L253.761 209.88V191.576L218.305 194.776Z" fill="#FFB100"/>
<path d="M64.232 102.128L60.52 84.08L55.4 108.144L34.024 109.936L21.224 103.536L1 7.92L24.168 5.99999L36.968 12.4L39.784 27.504L44.392 5.35999L64.744 3.696L77.032 10.096L81 29.424L85.992 2.92799L106.728 1.13599L119.528 7.536L99.816 106.736L77.032 108.656L64.232 102.128ZM87.016 4.20799L77.032 58.48C76.9467 59.248 76.8187 60.2293 76.648 61.424C76.5627 62.6187 76.4773 63.728 76.392 64.752C76.3067 65.6907 76.264 66.16 76.264 66.16H75.88C75.88 66.16 75.8373 65.6907 75.752 64.752C75.6667 63.8133 75.5387 62.7467 75.368 61.552C75.1973 60.272 75.0267 59.2907 74.856 58.608L63.592 5.104L45.416 6.63999L35.432 56.688C35.2613 57.712 35.048 59.0347 34.792 60.656C34.536 62.2773 34.3227 63.7707 34.152 65.136C34.0667 66.416 34.024 67.056 34.024 67.056H33.64C33.64 67.056 33.5973 66.4587 33.512 65.264C33.4267 63.984 33.256 62.5333 33 60.912C32.8293 59.2053 32.616 57.712 32.36 56.432L23.016 7.408L2.536 9.2L22.248 102.128L41.448 100.592L52.456 49.392C52.6267 48.5387 52.7973 47.2587 52.968 45.552C53.224 43.76 53.3947 42.096 53.48 40.56C53.6507 39.024 53.736 38.256 53.736 38.256L54.12 38.128C54.12 38.128 54.1627 38.896 54.248 40.432C54.4187 41.8827 54.5893 43.504 54.76 45.296C55.016 47.0027 55.2293 48.2827 55.4 49.136L65.256 100.976L85.864 99.184L105.064 2.672L87.016 4.20799ZM105.792 101.744V4.464L128.064 2.41599L140.864 8.81599V106.096L118.592 108.016L105.792 101.744ZM107.072 5.616V100.336L126.784 98.544V3.824L107.072 5.616ZM174.414 34.416C174.158 33.392 173.902 32.4533 173.646 31.6C173.39 30.7467 173.134 29.936 172.878 29.168C171.001 29.68 169.465 30.576 168.27 31.856C167.075 33.136 166.478 34.5867 166.478 36.208C166.478 37.6587 166.649 38.8533 166.99 39.792L170.574 40.816C174.926 42.096 179.321 43.7173 183.758 45.68C188.195 47.5573 192.249 49.8613 195.918 52.592C199.673 55.2373 202.702 58.3947 205.006 62.064C207.31 65.648 208.462 69.744 208.462 74.352C208.462 84.848 205.518 93.168 199.63 99.312C193.827 105.456 185.593 108.997 174.926 109.936C174.243 110.021 173.518 110.064 172.75 110.064C172.067 110.149 171.385 110.192 170.702 110.192C167.459 110.192 164.131 109.723 160.718 108.784C157.305 107.931 153.806 106.565 150.222 104.688C146.041 102.384 142.542 100.123 139.726 97.904C136.91 95.6 134.606 92.784 132.814 89.456C131.107 86.128 129.657 81.8187 128.462 76.528L149.838 68.336L162.638 74.736C163.15 76.9547 163.747 78.8747 164.43 80.496C169.635 79.728 172.238 77.1253 172.238 72.688C172.238 72.0053 172.153 71.408 171.982 70.896C171.897 70.2987 171.769 69.744 171.598 69.232C171.598 69.232 171.086 68.9333 170.062 68.336C169.038 67.7387 168.099 67.3547 167.246 67.184C158.969 65.136 152.099 62.704 146.638 59.888C141.262 57.072 137.251 53.488 134.606 49.136C132.046 44.784 130.766 39.28 130.766 32.624C130.766 26.992 132.089 21.872 134.734 17.264C137.379 12.5707 141.049 8.77333 145.742 5.87199C150.521 2.88533 155.982 1.136 162.126 0.623993C162.894 0.538661 163.619 0.495995 164.302 0.495995C165.07 0.410662 165.795 0.367996 166.478 0.367996C170.318 0.367996 173.689 0.879995 176.59 1.90399C179.577 2.92799 182.99 4.336 186.83 6.128C190.755 7.92 194.041 9.92533 196.686 12.144C199.331 14.3627 201.507 17.136 203.214 20.464C205.006 23.7067 206.499 27.888 207.694 33.008L187.214 40.816L174.414 34.416ZM161.486 82.032C158.073 82.032 155.342 81.008 153.294 78.96C151.246 76.912 149.753 73.968 148.814 70.128L129.87 77.296C131.833 85.744 135.075 92.0587 139.598 96.24C144.121 100.336 150.222 102.384 157.902 102.384C158.585 102.384 159.267 102.384 159.95 102.384C160.633 102.384 161.315 102.341 161.998 102.256C172.238 101.403 180.174 97.9893 185.806 92.016C191.523 86.0427 194.382 78.0213 194.382 67.952C194.382 60.784 192.377 55.2373 188.366 51.312C184.355 47.3867 178.297 44.3147 170.19 42.096L159.95 39.28C156.878 38.4267 154.83 37.1893 153.806 35.568C152.867 33.9467 152.398 32.0267 152.398 29.808C152.398 27.5893 153.251 25.6693 154.958 24.048C156.665 22.4267 158.926 21.488 161.742 21.232C162.083 21.232 162.382 21.232 162.638 21.232C162.979 21.1467 163.321 21.104 163.662 21.104C166.819 21.104 169.294 22 171.086 23.792C172.963 25.4987 174.371 28.4853 175.31 32.752L193.358 25.84C191.566 17.7333 188.494 11.7173 184.142 7.79199C179.875 3.78133 173.987 1.77599 166.478 1.77599C165.795 1.77599 165.07 1.77599 164.302 1.77599C163.619 1.77599 162.937 1.81866 162.254 1.90399C156.281 2.416 151.033 4.08 146.51 6.896C141.987 9.712 138.446 13.3387 135.886 17.776C133.326 22.2133 132.046 27.1627 132.046 32.624C132.046 40.1333 133.71 46.1067 137.038 50.544C140.451 54.9813 146.467 58.3093 155.086 60.528L163.022 62.576C166.265 63.4293 168.825 64.5387 170.702 65.904C172.579 67.2693 173.518 69.5307 173.518 72.688C173.518 78.2347 169.977 81.3493 162.894 82.032H161.486ZM197.697 103.024V5.744L252.865 0.879997L265.665 7.28V28.272L232.385 31.216V38.896L246.081 37.616L258.881 44.016V64.752L232.385 67.184V79.216L255.041 77.168L267.841 83.568V104.432L210.497 109.424L197.697 103.024ZM218.305 81.776V59.632L244.801 57.2V39.024L218.305 41.456V23.664L251.585 20.72V2.28799L198.977 6.896V101.744L253.761 96.88V78.576L218.305 81.776Z" fill="#00C7FF"/>
<path d="M47.424 305.096L44.64 291.56L40.8 309.608L24.768 310.952L15.168 306.152L0 234.44L17.376 233L26.976 237.8L29.088 249.128L32.544 232.52L47.808 231.272L57.024 236.072L60 250.568L63.744 230.696L79.296 229.352L88.896 234.152L74.112 308.552L57.024 309.992L47.424 305.096ZM64.512 231.656L57.024 272.36C56.96 272.936 56.864 273.672 56.736 274.568C56.672 275.464 56.608 276.296 56.544 277.064C56.48 277.768 56.448 278.12 56.448 278.12H56.16C56.16 278.12 56.128 277.768 56.064 277.064C56 276.36 55.904 275.56 55.776 274.664C55.648 273.704 55.52 272.968 55.392 272.456L46.944 232.328L33.312 233.48L25.824 271.016C25.696 271.784 25.536 272.776 25.344 273.992C25.152 275.208 24.992 276.328 24.864 277.352C24.8 278.312 24.768 278.792 24.768 278.792H24.48C24.48 278.792 24.448 278.344 24.384 277.448C24.32 276.488 24.192 275.4 24 274.184C23.872 272.904 23.712 271.784 23.52 270.824L16.512 234.056L1.152 235.4L15.936 305.096L30.336 303.944L38.592 265.544C38.72 264.904 38.848 263.944 38.976 262.664C39.168 261.32 39.296 260.072 39.36 258.92C39.488 257.768 39.552 257.192 39.552 257.192L39.84 257.096C39.84 257.096 39.872 257.672 39.936 258.824C40.064 259.912 40.192 261.128 40.32 262.472C40.512 263.752 40.672 264.712 40.8 265.352L48.192 304.232L63.648 302.888L78.048 230.504L64.512 231.656ZM111.714 303.848L108.162 292.424L100.578 293.096L95.874 309.896L79.554 311.336L69.954 306.536L90.978 231.56L106.818 230.216L116.418 235.016L137.826 307.304L121.314 308.648L111.714 303.848ZM91.746 232.52L71.394 305.384L85.41 304.232L90.21 287.432L107.298 285.896L112.386 302.888L126.882 301.64L106.05 231.272L91.746 232.52ZM93.57 273.416C94.786 269.448 95.778 265.672 96.546 262.088C97.378 258.504 98.082 254.92 98.658 251.336H99.042C99.554 254.856 100.194 258.312 100.962 261.704C101.794 265.032 102.786 268.616 103.938 272.456L93.57 273.416ZM157.304 254.312C157.112 253.544 156.92 252.84 156.728 252.2C156.536 251.56 156.344 250.952 156.152 250.376C154.744 250.76 153.592 251.432 152.696 252.392C151.8 253.352 151.352 254.44 151.352 255.656C151.352 256.744 151.48 257.64 151.736 258.344L154.424 259.112C157.688 260.072 160.984 261.288 164.312 262.76C167.64 264.168 170.68 265.896 173.432 267.944C176.248 269.928 178.52 272.296 180.248 275.048C181.976 277.736 182.84 280.808 182.84 284.264C182.84 292.136 180.632 298.376 176.216 302.984C171.864 307.592 165.688 310.248 157.688 310.952C157.176 311.016 156.632 311.048 156.056 311.048C155.544 311.112 155.032 311.144 154.52 311.144C152.088 311.144 149.592 310.792 147.032 310.088C144.472 309.448 141.848 308.424 139.16 307.016C136.024 305.288 133.4 303.592 131.288 301.928C129.176 300.2 127.448 298.088 126.104 295.592C124.824 293.096 123.736 289.864 122.84 285.896L138.872 279.752L148.472 284.552C148.856 286.216 149.304 287.656 149.816 288.872C153.72 288.296 155.672 286.344 155.672 283.016C155.672 282.504 155.608 282.056 155.48 281.672C155.416 281.224 155.32 280.808 155.192 280.424C155.192 280.424 154.808 280.2 154.04 279.752C153.272 279.304 152.568 279.016 151.928 278.888C145.72 277.352 140.568 275.528 136.472 273.416C132.44 271.304 129.432 268.616 127.448 265.352C125.528 262.088 124.568 257.96 124.568 252.968C124.568 248.744 125.56 244.904 127.544 241.448C129.528 237.928 132.28 235.08 135.8 232.904C139.384 230.664 143.48 229.352 148.088 228.968C148.664 228.904 149.208 228.872 149.72 228.872C150.296 228.808 150.84 228.776 151.352 228.776C154.232 228.776 156.76 229.16 158.936 229.928C161.176 230.696 163.736 231.752 166.616 233.096C169.56 234.44 172.024 235.944 174.008 237.608C175.992 239.272 177.624 241.352 178.904 243.848C180.248 246.28 181.368 249.416 182.264 253.256L166.904 259.112L157.304 254.312ZM147.608 290.024C145.048 290.024 143 289.256 141.464 287.72C139.928 286.184 138.808 283.976 138.104 281.096L123.896 286.472C125.368 292.808 127.8 297.544 131.192 300.68C134.584 303.752 139.16 305.288 144.92 305.288C145.432 305.288 145.944 305.288 146.456 305.288C146.968 305.288 147.48 305.256 147.992 305.192C155.672 304.552 161.624 301.992 165.848 297.512C170.136 293.032 172.28 287.016 172.28 279.464C172.28 274.088 170.776 269.928 167.768 266.984C164.76 264.04 160.216 261.736 154.136 260.072L146.456 257.96C144.152 257.32 142.616 256.392 141.848 255.176C141.144 253.96 140.792 252.52 140.792 250.856C140.792 249.192 141.432 247.752 142.712 246.536C143.992 245.32 145.688 244.616 147.8 244.424C148.056 244.424 148.28 244.424 148.472 244.424C148.728 244.36 148.984 244.328 149.24 244.328C151.608 244.328 153.464 245 154.808 246.344C156.216 247.624 157.272 249.864 157.976 253.064L171.512 247.88C170.168 241.8 167.864 237.288 164.6 234.344C161.4 231.336 156.984 229.832 151.352 229.832C150.84 229.832 150.296 229.832 149.72 229.832C149.208 229.832 148.696 229.864 148.184 229.928C143.704 230.312 139.768 231.56 136.376 233.672C132.984 235.784 130.328 238.504 128.408 241.832C126.488 245.16 125.528 248.872 125.528 252.968C125.528 258.6 126.776 263.08 129.272 266.408C131.832 269.736 136.344 272.232 142.808 273.896L148.76 275.432C151.192 276.072 153.112 276.904 154.52 277.928C155.928 278.952 156.632 280.648 156.632 283.016C156.632 287.176 153.976 289.512 148.664 290.024H147.608ZM185.806 304.712V253.448L179.758 253.928L170.158 249.128V233L217.966 228.776L227.566 233.576V249.704L211.919 251.048V307.88L195.406 309.416L185.806 304.712ZM217.006 244.04V229.832L171.118 233.864V248.072L186.766 246.728V303.656L201.358 302.408V245.384L217.006 244.04ZM217.955 305.768V232.808L259.331 229.16L268.931 233.96V249.704L243.971 251.912V257.672L254.243 256.712L263.843 261.512V277.064L243.971 278.888V287.912L260.963 286.376L270.563 291.176V306.824L227.555 310.568L217.955 305.768ZM233.411 289.832V273.224L253.283 271.4V257.768L233.411 259.592V246.248L258.371 244.04V230.216L218.915 233.672V304.808L260.003 301.16V287.432L233.411 289.832Z" fill="#FF00B6"/>
</svg>
