<svg width="26" height="32" viewBox="0 0 26 32" fill="none" xmlns="http://www.w3.org/2000/svg">
<path d="M7.85148 1.05869L1.38711 1.64554H1.24346L7.70783 14.4096L0.525194 29.6678L6.84591 29.2277L10.8682 20.4249L15.0341 28.7876L21.9295 28.2007L14.4595 13.6761L20.7802 0.178404L14.1722 0.765259L11.2991 7.51409L7.85148 1.05869Z" fill="white"/>
<path d="M14.8571 29.1831L13.1655 25.9155L10.7383 31.3615L3.67751 32L0 30.1221L7.35502 14.4977L0.772277 1.46479L7.94342 0.826289L11.6209 2.70422L12.3932 4.20657L13.901 0.638496L20.9986 0L24.6761 1.87793L18.3876 15.5869L26 30.4225L18.5347 31.061L14.8571 29.1831ZM20.3734 0.450703L14.1216 1.01408L11.2532 7.92488L7.72277 1.23944L1.3239 1.80282L7.75955 14.4601L0.625177 29.6714L6.80339 29.1455L10.7751 20.2817L15.0778 28.8075L21.6973 28.2066L14.3055 13.7465L20.3734 0.450703Z" fill="black"/>
</svg>
